<?xml version="1.0" encoding="utf-8"?>
<!-- Generator: Adobe Illustrator 18.0.0, SVG Export Plug-In . SVG Version: 6.00 Build 0)  -->
<!DOCTYPE svg PUBLIC "-//W3C//DTD SVG 1.1//EN" "http://www.w3.org/Graphics/SVG/1.1/DTD/svg11.dtd">
<svg version="1.1" id="图层_1" xmlns="http://www.w3.org/2000/svg" xmlns:xlink="http://www.w3.org/1999/xlink" x="0px" y="0px"
	 viewBox="29 156 342 88" enable-background="new 29 156 342 88" xml:space="preserve">
<g>
	<path fill="#DF2422" d="M116.5,174c-3.3-3.3-7.7-5.2-12.4-5.2H90.8v-2c0-2.8-1.1-5.3-3-7.3c-2-2-4.5-3-7.3-3h-10
		c-2.8,0-5.3,1.1-7.3,3c-2,2-3,4.5-3,7.3v2H47c-4.7,0-9.1,1.9-12.4,5.2c-3.3,3.3-5.2,7.7-5.2,12.4V226c0,4.7,1.9,9.1,5.2,12.4
		c3.3,3.3,7.7,5.2,12.4,5.2h71.6c1.6,0,2.9-1.3,2.9-2.9v-54.2C121.6,181.7,119.8,177.2,116.5,174z M67.6,189.2
		c0.5-0.3,1.1-0.5,1.7-0.7c0.1,0,0.2-0.1,0.3-0.1c3.9-1.3,8.3-1.3,12.2,0c0.1,0,0.2,0.1,0.3,0.1c0.6,0.2,1.2,0.4,1.7,0.7h0.1
		l-8.2,11.2L67.6,189.2L67.6,189.2z M66.1,166.8c0-1.2,0.4-2.3,1.2-3.1c0.8-0.8,2-1.2,3.1-1.2h2.1V174c0,1.6,1.3,2.9,2.9,2.9
		c1.6,0,2.9-1.3,2.9-2.9v-11.6h2.1c1.2,0,2.3,0.4,3.1,1.2c0.8,0.8,1.2,2,1.2,3.1v16.5c-2.9-1.2-6.1-2-9.4-2s-6.5,0.6-9.4,2
		L66.1,166.8L66.1,166.8z M115.8,237.7H47c-3.1,0-6-1.2-8.3-3.5c-2.2-2.2-3.5-5.2-3.5-8.3v-39.6c0-3.1,1.2-6,3.5-8.3
		c2.2-2.2,5.2-3.5,8.3-3.5h13.2V187c-5.4,4.5-8.6,11.3-8.6,18.4c0,13.2,10.8,23.9,23.9,23.9s23.9-10.8,23.9-23.9
		c0-3.6-0.8-7.2-2.4-10.5c-0.7-1.4-2.5-2-3.9-1.3c-1.4,0.7-2,2.5-1.3,3.9c1.2,2.5,1.8,5.2,1.8,7.9c0,10-8.1,18-18,18s-18-8.1-18-18
		c0-4.8,2-9.3,5.2-12.7l10.4,14.4c0.5,0.8,1.4,1.2,2.4,1.2s1.8-0.4,2.4-1.2l12.4-17l0,0c0,0,0,0,0-0.1c0.1-0.1,0.1-0.2,0.1-0.2
		c0.1-0.1,0.1-0.2,0.2-0.3c0-0.1,0.1-0.2,0.1-0.2c0-0.1,0.1-0.3,0.1-0.4c0-0.1,0-0.2,0-0.2c0-0.1,0-0.3,0-0.4c0,0,0,0,0-0.1v-13.8
		H104c3.1,0,6,1.2,8.3,3.5c2.2,2.2,3.5,5.2,3.5,8.3L115.8,237.7L115.8,237.7z"/>
	<g>
		<g>
			<path fill="#3F3637" d="M163.1,174.9h-22.6v4.3c0,0.5,0.2,1,0.5,1.3c0.4,0.4,0.9,0.5,1.3,0.5H165v-4.3c0-0.5-0.2-1-0.5-1.3
				C164.1,175.1,163.6,174.9,163.1,174.9z"/>
			<path fill="#3F3637" d="M159.3,187h-18.7v4.3c0,0.5,0.2,1,0.5,1.3c0.4,0.4,0.9,0.5,1.3,0.5H153c0.5,0,1,0.2,1.3,0.5
				c0.4,0.4,0.5,0.9,0.5,1.3v40.7h8.3c0.5,0,1-0.2,1.3-0.5c0.4-0.4,0.5-0.9,0.5-1.3v-41.1c0-1.5-0.5-2.9-1.7-4.1
				C162.2,187.6,160.7,187,159.3,187z"/>
			<path fill="#3F3637" d="M179.6,213.8c0.4-0.4,0.5-0.9,0.5-1.3v-30.2c0-0.5,0.2-1,0.5-1.3c0.4-0.4,0.9-0.5,1.3-0.5h15.6
				c0.5,0,1,0.2,1.3,0.5c0.4,0.4,0.5,0.9,0.5,1.3v32.1h8.3c0.5,0,1-0.2,1.3-0.5s0.5-0.9,0.5-1.3v-32.5c0-1.5-0.5-2.9-1.7-4.1
				c-1.2-1.2-2.6-1.7-4.1-1.7h-28.2c-1.5,0-2.9,0.5-4.1,1.7c-1.2,1.2-1.7,2.6-1.7,4.1v34.4h8.3C178.7,214.4,179.1,214.1,179.6,213.8
				z"/>
			<path fill="#3F3637" d="M147.8,199.4h-7.1v36.4h7.1c0.5,0,1-0.2,1.3-0.5c0.4-0.4,0.5-0.9,0.5-1.3v-32.6c0-0.5-0.2-1-0.5-1.3
				C148.8,199.6,148.3,199.4,147.8,199.4z"/>
			<path fill="#3F3637" d="M202,229.7c-0.5,0-1-0.2-1.3-0.5c-0.4-0.4-0.5-0.9-0.5-1.3v-8.7c0-0.5-0.2-1-0.5-1.3
				c-0.4-0.4-0.9-0.5-1.3-0.5h-6.8l2-3.6c0.5-1,1-2,1.2-3.1c0.3-1.2,0.4-2.2,0.4-3.4V189c0-0.5-0.2-1-0.5-1.3
				c-0.4-0.4-0.9-0.5-1.3-0.5H187c-0.5,0-1,0.2-1.3,0.5s-0.5,0.9-0.5,1.3v17.2c0,0.6-0.1,1.2-0.3,1.9c-0.2,0.6-0.4,1.2-0.7,1.8
				l-12.9,23.6c-0.1,0.3-0.4,0.4-0.6,0.6c-0.3,0.2-0.5,0.3-0.8,0.3h-0.1l-0.6,1.1c-0.1,0.1-0.1,0.3,0,0.4c0.1,0.1,0.2,0.2,0.4,0.2
				h0.4h1h9.3c0.4,0,0.7-0.1,1-0.3c0.3-0.2,0.5-0.4,0.7-0.7l8.3-15V230c0,1.5,0.5,2.9,1.7,4.1c1.2,1.2,2.6,1.7,4.1,1.7h14
				c0.5,0,1-0.2,1.3-0.5s0.5-0.9,0.5-1.3v-4.3L202,229.7L202,229.7z"/>
		</g>
		<g>
			<path fill="#3F3637" d="M286.3,182.8c-1.2-1.2-2.6-1.7-4.1-1.7H278l2.4-4.4c0.1-0.3,0.4-0.4,0.6-0.6c0.3-0.2,0.5-0.2,0.8-0.2l0,0
				l0.6-1.1c0.1-0.1,0.1-0.3,0-0.4c-0.1-0.1-0.2-0.2-0.4-0.2h-0.4h-0.9h-8.2c-0.4,0-0.7,0.1-1,0.3c-0.3,0.2-0.5,0.4-0.7,0.7l-3.3,6
				h-9.2v-6c0-0.5-0.2-1-0.5-1.3s-0.9-0.5-1.3-0.5h-6.3c-0.5,0-1,0.2-1.3,0.5s-0.5,0.9-0.5,1.3v6h-9.4l-3.3-6
				c-0.2-0.3-0.4-0.5-0.7-0.7c-0.3-0.2-0.6-0.3-1-0.3h-8.3h-1h-0.4c-0.1,0-0.3,0.1-0.4,0.2c-0.1,0.1-0.1,0.3,0,0.4l0.6,1.1l0,0
				c0.3,0,0.5,0.1,0.8,0.2c0.3,0.2,0.4,0.4,0.6,0.6l2.4,4.4h-4.2c-1.5,0-2.9,0.5-4.1,1.7c-1.2,1.2-1.7,2.6-1.7,4.1v8.2h8.3
				c0.5,0,1-0.2,1.3-0.5c0.4-0.4,0.5-0.9,0.5-1.3v-3.9c0-0.5,0.2-1,0.5-1.3c0.4-0.4,0.9-0.5,1.3-0.5h44.9c0.5,0,1,0.2,1.3,0.5
				c0.4,0.4,0.5,0.9,0.5,1.3v3.9c0,0.5,0.2,1,0.5,1.3s0.9,0.5,1.3,0.5h8.3v-8.2C288,185.4,287.5,183.9,286.3,182.8z"/>
			<path fill="#3F3637" d="M266.3,229.1c-0.4-0.4-0.5-0.9-0.5-1.3V219c0-0.5-0.2-1-0.5-1.3s-0.9-0.5-1.3-0.5H256
				c0.6-0.7,1.2-1.5,1.5-2.4c0.7-1.6,1.1-3.2,1.1-4.9v-6.4H272c0.5,0,1,0.2,1.3,0.5c0.4,0.4,0.5,0.9,0.5,1.3v13.9h8.3
				c0.5,0,1-0.2,1.3-0.5c0.4-0.4,0.5-0.9,0.5-1.3V203c0-1.5-0.5-2.9-1.7-4.1c-1.2-1.2-2.6-1.7-4.1-1.7h-49.9c-1.5,0-2.9,0.5-4.1,1.7
				c-1.2,1.2-1.7,2.6-1.7,4.1v16.2h8.3c0.5,0,1-0.2,1.3-0.5c0.4-0.4,0.5-0.9,0.5-1.3v-12c0-0.5,0.2-1,0.5-1.3
				c0.4-0.4,0.9-0.5,1.3-0.5h13.5v4.3c0,1.1-0.3,2.2-0.7,3.3s-1.2,2-2,2.7l-23.9,20.1c-0.2,0.2-0.4,0.3-0.5,0.4
				c-0.2,0.1-0.4,0.1-0.6,0.1h-0.1l-1.1,0.9c-0.2,0.1-0.2,0.4-0.1,0.5c0.1,0.2,0.3,0.3,0.4,0.3h13.2c0.4,0,0.9-0.1,1.3-0.3
				s0.8-0.4,1.2-0.7l19.1-16.4c0.4-0.4,0.7-0.7,1.1-1.1V230c0,1.5,0.5,2.9,1.7,4.1c1.2,1.2,2.6,1.7,4.1,1.7h24.7
				c0.5,0,1-0.2,1.3-0.5s0.5-0.9,0.5-1.3v-4.3h-20.4C267.2,229.7,266.7,229.4,266.3,229.1z"/>
		</g>
	</g>
	<g>
		<g>
			<g>
				<path fill="#DF2422" d="M304.4,174.1c-1.2,0-2.3,0.4-3.2,1.3s-1.3,2-1.3,3.2v28.2h5.5c0.4,0,0.8-0.2,1.1-0.4
					c0.3-0.3,0.4-0.7,0.4-1.1v-24.8c0-0.4,0.2-0.8,0.4-1.1s0.7-0.4,1.1-0.4h20c0.4,0,0.8,0.2,1.1,0.4c0.3,0.3,0.4,0.7,0.4,1.1v26.3
					h5.5c0.4,0,0.8-0.2,1.1-0.4c0.3-0.3,0.4-0.7,0.4-1.1v-26.7c0-1.2-0.4-2.3-1.3-3.2s-2-1.3-3.2-1.3H304.4z"/>
				<path fill="#DF2422" d="M321.5,184.6c-0.3-0.3-0.7-0.4-1.1-0.4h-4c-0.4,0-0.8,0.2-1.1,0.4c-0.3,0.3-0.4,0.7-0.4,1.1v21.2h5.5
					c0.4,0,0.8-0.2,1.1-0.4c0.3-0.3,0.4-0.7,0.4-1.1v-19.6C322,185.3,321.8,184.9,321.5,184.6z"/>
			</g>
			<g>
				<path fill="#DF2422" d="M368.7,188h-12.3c-0.4,0-0.8,0.2-1.1,0.4c-0.3,0.3-0.4,0.7-0.4,1.1v1.9c0,0.4,0.2,0.8,0.4,1.1
					c0.3,0.3,0.7,0.4,1.1,0.4h13.8v-3.4c0-0.4-0.2-0.8-0.4-1.1C369.4,188.2,369.1,188,368.7,188z"/>
				<path fill="#DF2422" d="M350.8,179.5c0.3-0.3,0.7-0.4,1.1-0.4h19v-3.4c0-0.4-0.2-0.8-0.4-1.1c-0.3-0.3-0.7-0.4-1.1-0.4h-21.5
					c-1.2,0-2.3,0.4-3.2,1.3c-0.9,0.9-1.3,2-1.3,3.2v23.6c0,1.2,0.4,2.3,1.3,3.2c0.9,0.9,2,1.3,3.2,1.3h23v-3.4
					c0-0.4-0.2-0.8-0.4-1.1s-0.7-0.4-1.1-0.4h-17.5c-0.4,0-0.8-0.2-1.1-0.4c-0.3-0.3-0.4-0.7-0.4-1.1v-19.8
					C350.3,180.1,350.5,179.7,350.8,179.5z"/>
			</g>
		</g>
	</g>
</g>
</svg>
